<svg width="245" height="84" viewBox="0 0 245 84" fill="none" xmlns="http://www.w3.org/2000/svg">
<circle cx="37.5" cy="42.5" r="37.5" fill="#0075FF"/>
<circle cx="33" cy="42" r="33" fill="#3B95FF"/>
<circle cx="25.5" cy="42.5" r="25.5" fill="#6BAFFF"/>
<path d="M117.469 57.5L120.125 67H129.375L114.75 21.5H106.781L91.875 67H101.125L103.812 57.5H117.469ZM105.969 50.0312L110.75 33.2812L115.406 50.0312H105.969ZM142.875 50.3125H149.656C152.135 50.3125 154.375 49.9583 156.375 49.25C158.375 48.5417 160.083 47.5521 161.5 46.2812C162.896 45.0312 163.969 43.5417 164.719 41.8125C165.49 40.0833 165.875 38.1979 165.875 36.1562C165.875 33.9688 165.49 31.9792 164.719 30.1875C163.969 28.3958 162.896 26.8542 161.5 25.5625C160.083 24.2917 158.375 23.3021 156.375 22.5938C154.375 21.8646 152.135 21.5 149.656 21.5H134.094V67H142.875V50.3125ZM142.875 43.1875V28.625H149.656C150.906 28.625 151.99 28.8229 152.906 29.2188C153.823 29.6146 154.594 30.1562 155.219 30.8438C155.823 31.5312 156.271 32.3333 156.562 33.25C156.875 34.1667 157.031 35.1562 157.031 36.2188C157.031 37.1354 156.875 38.0208 156.562 38.875C156.271 39.7083 155.823 40.4479 155.219 41.0938C154.594 41.7396 153.823 42.25 152.906 42.625C151.99 43 150.906 43.1875 149.656 43.1875H142.875ZM173.906 21.5V28.5938H182.562V59.9375H173.906V67H200.219V59.9375H191.344V28.5938H200.219V21.5H173.906ZM232.531 57.7188C232.531 58.2396 232.396 58.7188 232.125 59.1562C231.875 59.5938 231.49 59.9792 230.969 60.3125C230.427 60.6458 229.729 60.9167 228.875 61.125C228.042 61.3125 227.062 61.4062 225.938 61.4062C225 61.4062 224.083 61.3125 223.188 61.125C222.312 60.9375 221.531 60.6354 220.844 60.2188C220.156 59.8229 219.594 59.3021 219.156 58.6562C218.719 57.9896 218.469 57.1979 218.406 56.2812H210.125C210.125 57.6562 210.458 59.0312 211.125 60.4062C211.812 61.7604 212.812 62.9688 214.125 64.0312C215.438 65.1146 217.062 65.9896 219 66.6562C220.958 67.3229 223.208 67.6562 225.75 67.6562C228.062 67.6562 230.156 67.4062 232.031 66.9062C233.906 66.3854 235.51 65.6667 236.844 64.75C238.156 63.8333 239.167 62.75 239.875 61.5C240.604 60.2292 240.969 58.8438 240.969 57.3438C240.969 55.7188 240.604 54.3229 239.875 53.1562C239.167 51.9688 238.177 50.9583 236.906 50.125C235.635 49.3125 234.125 48.6458 232.375 48.125C230.625 47.6042 228.729 47.1771 226.688 46.8438C225.271 46.6354 224.104 46.3958 223.188 46.125C222.271 45.8333 221.552 45.5104 221.031 45.1562C220.49 44.8229 220.115 44.4479 219.906 44.0312C219.698 43.5938 219.594 43.125 219.594 42.625C219.594 42.125 219.708 41.6562 219.938 41.2188C220.188 40.7604 220.542 40.3646 221 40.0312C221.5 39.6562 222.146 39.3646 222.938 39.1562C223.729 38.9479 224.656 38.8438 225.719 38.8438C226.969 38.8438 228.031 39 228.906 39.3125C229.802 39.625 230.51 40.0417 231.031 40.5625C231.406 40.9583 231.688 41.4062 231.875 41.9062C232.062 42.3854 232.156 42.9062 232.156 43.4688H240.844C240.844 41.9062 240.5 40.4583 239.812 39.125C239.125 37.7917 238.135 36.6354 236.844 35.6562C235.531 34.6979 233.938 33.9479 232.062 33.4062C230.188 32.8438 228.073 32.5625 225.719 32.5625C223.469 32.5625 221.448 32.8438 219.656 33.4062C217.865 33.9688 216.344 34.7292 215.094 35.6875C213.844 36.6458 212.885 37.7604 212.219 39.0312C211.552 40.3021 211.219 41.6354 211.219 43.0312C211.219 44.4688 211.542 45.7396 212.188 46.8438C212.854 47.9479 213.771 48.9167 214.938 49.75C216.104 50.6042 217.5 51.3333 219.125 51.9375C220.771 52.5208 222.583 53.0104 224.562 53.4062C226.125 53.6979 227.417 53.9896 228.438 54.2812C229.458 54.5729 230.281 54.8854 230.906 55.2188C231.51 55.5729 231.927 55.9479 232.156 56.3438C232.406 56.7396 232.531 57.1979 232.531 57.7188Z" fill="black"/>
</svg>
